<?xml version="1.0"?>
<svg xmlns="http://www.w3.org/2000/svg" viewBox="0 0 64 64" width="512" height="512"><g id="outline"><path d="M8,52V62H52V52H44V44h3a3,3,0,0,0,0-6H36V52H34V17a7,7,0,0,1,14,0v5a1,1,0,0,0,1,1h6a1,1,0,0,0,1-1V17a15,15,0,0,0-30,0V52H24V38H13a3,3,0,0,0,0,6h3v8ZM38,40h9a1,1,0,0,1,0,2H38Zm0,4h4v8H38ZM54,21H50V19h4ZM28,17a13,13,0,0,1,26,0H50a9,9,0,0,0-18,0V52H28ZM13,42a1,1,0,0,1,0-2h9v2Zm9,2v8H18V44ZM50,54v6H10V58h4V56H10V54Z"/><path d="M52,25.5l-.744.829C50.712,26.938,48,30.059,48,32a4,4,0,0,0,8,0c0-1.941-2.712-5.062-3.256-5.668ZM52,34a2,2,0,0,1-2-2c0-.638.939-2.126,2-3.451,1.062,1.332,2,2.832,2,3.451A2,2,0,0,1,52,34Z"/><rect x="16" y="56" width="2" height="2"/><rect x="46" y="56" width="2" height="2"/></g></svg>
