<?xml version="1.0" encoding="iso-8859-1"?>
<!-- Generator: Adobe Illustrator 22.1.0, SVG Export Plug-In . SVG Version: 6.00 Build 0)  -->
<svg xmlns="http://www.w3.org/2000/svg" xmlns:xlink="http://www.w3.org/1999/xlink" version="1.1" id="Layer_32" x="0px" y="0px" viewBox="0 0 64 64" style="enable-background:new 0 0 64 64;" xml:space="preserve" width="512" height="512">
<g>
	<path d="M60,49h-1.22l-1.432-5.729C57.015,41.935,55.817,41,54.438,41H54v-3c0-0.553-0.447-1-1-1h-6c-0.553,0-1,0.447-1,1v3h-0.438   c-1.379,0-2.576,0.935-2.91,2.272L41.22,49H40c-1.654,0-3,1.346-3,3v6c0,0.553,0.447,1,1,1h3v2c0,1.103,0.897,2,2,2h2   c1.103,0,2-0.897,2-2v-2h6v2c0,1.103,0.897,2,2,2h2c1.103,0,2-0.897,2-2v-2h3c0.553,0,1-0.447,1-1v-6C63,50.346,61.654,49,60,49z    M48,39h4v2h-4V39z M44.591,43.758C44.703,43.312,45.102,43,45.562,43h8.877c0.46,0,0.858,0.312,0.971,0.757L56.72,49H43.28   L44.591,43.758z M45,61h-2v-2h2V61z M57,61h-2v-2h2V61z M61,57H39v-5c0-0.552,0.448-1,1-1h20c0.552,0,1,0.448,1,1V57z"/>
	<rect x="57" y="53" width="2" height="2"/>
	<rect x="41" y="53" width="2" height="2"/>
	<rect x="47" y="53" width="6" height="2"/>
	<path d="M2,19h10c0.553,0,1-0.447,1-1v-5c0-2.26-1.256-4.23-3.107-5.253C10.575,7.029,11,6.066,11,5c0-2.206-1.794-4-4-4   S3,2.794,3,5c0,1.066,0.425,2.029,1.107,2.747C2.256,8.77,1,10.74,1,13v5C1,18.553,1.447,19,2,19z M5,5c0-1.103,0.897-2,2-2   s2,0.897,2,2S8.103,7,7,7S5,6.103,5,5z M3,13c0-2.206,1.794-4,4-4s4,1.794,4,4v4H3V13z"/>
	<path d="M3,40c0-9.374,7.626-17,17-17h28c3.859,0,7-3.141,7-7s-3.141-7-7-7H17v2h31c2.757,0,5,2.243,5,5s-2.243,5-5,5H20   C9.523,21,1,29.523,1,40s8.523,19,19,19h13v-2H20C10.626,57,3,49.374,3,40z"/>
	<path d="M11,40c0-4.963,4.037-9,9-9h28c8.271,0,15-6.729,15-15S56.271,1,48,1H17v2h31c7.168,0,13,5.832,13,13s-5.832,13-13,13H20   c-6.065,0-11,4.935-11,11s4.935,11,11,11h13v-2H20C15.037,49,11,44.963,11,40z"/>
	<rect x="17" y="5" width="2" height="2"/>
	<path d="M5.001,40.191c0.019,1.471,0.25,2.923,0.688,4.316l1.908-0.6c-0.379-1.207-0.58-2.466-0.596-3.742L5.001,40.191z"/>
	<rect x="31.29" y="5" width="4.097" height="2"/>
	<rect x="23.097" y="5" width="4.097" height="2"/>
	<rect x="39.482" y="5" width="4.097" height="2"/>
	<rect x="22.758" y="53" width="4.097" height="2"/>
	<path d="M7.389,31.877c-0.798,1.235-1.406,2.575-1.809,3.982l1.924,0.549c0.348-1.218,0.874-2.377,1.564-3.447L7.389,31.877z"/>
	<path d="M10.562,51.659l1.26-1.553c-0.988-0.802-1.853-1.741-2.568-2.79l-1.652,1.127C8.426,49.653,9.422,50.735,10.562,51.659z"/>
	<path d="M15.08,52.037l-0.758,1.852c1.356,0.555,2.785,0.906,4.247,1.043l0.188-1.99C17.491,52.821,16.254,52.518,15.08,52.037z"/>
	<path d="M51.314,7.63l0.738-1.859C50.764,5.26,49.4,5,48,5h-0.324v2H48C49.146,7,50.262,7.212,51.314,7.63z"/>
	<rect x="26.497" y="25" width="4.097" height="2"/>
	<path d="M18.188,25.108l0.24,1.986C18.944,27.031,19.473,27,20,27h2.4v-2H20C19.393,25,18.782,25.037,18.188,25.108z"/>
	<path d="M11.564,30.107c0.969-0.827,2.049-1.505,3.21-2.015l-0.805-1.832c-1.34,0.589-2.586,1.371-3.704,2.325L11.564,30.107z"/>
	<rect x="34.69" y="25" width="4.097" height="2"/>
	<path d="M57.934,20.73c0.652-1.365,1.009-2.828,1.06-4.348l-1.998-0.068c-0.043,1.243-0.334,2.439-0.866,3.555L57.934,20.73z"/>
	<rect x="42.883" y="25" width="4.097" height="2"/>
	<path d="M54.371,9.644c0.879,0.881,1.554,1.91,2.006,3.061l1.861-0.732c-0.553-1.406-1.378-2.665-2.451-3.74L54.371,9.644z"/>
	<path d="M50.725,24.579l0.604,1.906c1.441-0.457,2.753-1.195,3.899-2.194l-1.314-1.508C52.976,23.602,51.902,24.206,50.725,24.579z   "/>
	<rect x="31" y="53" width="2" height="2"/>
</g>
</svg>
