<?xml version="1.0" encoding="iso-8859-1"?>
<!-- Generator: Adobe Illustrator 19.0.0, SVG Export Plug-In . SVG Version: 6.00 Build 0)  -->
<svg version="1.1" id="Capa_1" xmlns="http://www.w3.org/2000/svg" xmlns:xlink="http://www.w3.org/1999/xlink" x="0px" y="0px"
	 viewBox="0 0 512 512" style="enable-background:new 0 0 512 512;" xml:space="preserve">
<g>
	<g>
		<path d="M503.467,8.533H8.533C3.823,8.533,0,12.356,0,17.067v477.867c0,4.719,3.823,8.533,8.533,8.533h494.933
			c4.719,0,8.533-3.814,8.533-8.533V17.067C512,12.356,508.186,8.533,503.467,8.533z M494.933,486.4H17.067V25.6h477.867V486.4z"/>
	</g>
</g>
<g>
	<g>
		<path d="M145.067,213.333c-42.342,0-76.8,34.458-76.8,76.8c0,42.351,34.458,76.8,76.8,76.8s76.8-34.449,76.8-76.8
			C221.867,247.791,187.409,213.333,145.067,213.333z M145.067,349.867c-32.939,0-59.733-26.803-59.733-59.733
			s26.795-59.733,59.733-59.733c32.939,0,59.733,26.803,59.733,59.733C204.8,323.063,178.005,349.867,145.067,349.867z"/>
	</g>
</g>
<g>
	<g>
		
			<rect x="59.429" y="328.539" transform="matrix(0.7071 -0.7071 0.7071 0.7071 -212.1044 162.0788)" width="60.33" height="17.066"/>
	</g>
</g>
<g>
	<g>
		<path d="M145.067,264.533c-14.114,0-25.6,11.486-25.6,25.6s11.486,25.6,25.6,25.6s25.6-11.486,25.6-25.6
			S159.181,264.533,145.067,264.533z M145.067,298.667c-4.702,0-8.533-3.823-8.533-8.533s3.831-8.533,8.533-8.533
			c4.702,0,8.533,3.823,8.533,8.533S149.769,298.667,145.067,298.667z"/>
	</g>
</g>
<g>
	<g>
		
			<rect x="170.355" y="234.677" transform="matrix(0.7071 -0.7071 0.7071 0.7071 -113.2446 213.0238)" width="60.33" height="17.067"/>
	</g>
</g>
<g>
	<g>
		
			<rect x="191.971" y="306.926" transform="matrix(0.7071 -0.7071 0.7071 0.7071 -179.6335 240.5107)" width="17.067" height="60.33"/>
	</g>
</g>
<g>
	<g>
		
			<rect x="81.034" y="213.027" transform="matrix(0.7071 -0.7071 0.7071 0.7071 -145.7292 134.5632)" width="17.067" height="60.33"/>
	</g>
</g>
<g>
	<g>
		<path d="M145.067,42.667c-42.342,0-76.8,34.458-76.8,76.8s34.458,76.8,76.8,76.8s76.8-34.458,76.8-76.8
			S187.409,42.667,145.067,42.667z M145.067,179.2c-32.939,0-59.733-26.795-59.733-59.733s26.795-59.733,59.733-59.733
			c32.939,0,59.733,26.795,59.733,59.733S178.005,179.2,145.067,179.2z"/>
	</g>
</g>
<g>
	<g>
		
			<rect x="59.429" y="157.906" transform="matrix(0.7071 -0.7071 0.7071 0.7071 -91.4489 112.1014)" width="60.33" height="17.067"/>
	</g>
</g>
<g>
	<g>
		<path d="M145.067,93.867c-14.114,0-25.6,11.486-25.6,25.6s11.486,25.6,25.6,25.6s25.6-11.486,25.6-25.6
			S159.181,93.867,145.067,93.867z M145.067,128c-4.702,0-8.533-3.831-8.533-8.533s3.831-8.533,8.533-8.533
			c4.702,0,8.533,3.831,8.533,8.533S149.769,128,145.067,128z"/>
	</g>
</g>
<g>
	<g>
		<rect x="170.364" y="64.036" transform="matrix(0.7071 -0.7071 0.7071 0.7071 7.4193 163.0503)" width="60.33" height="17.067"/>
	</g>
</g>
<g>
	<g>
		
			<rect x="191.988" y="136.225" transform="matrix(0.7071 -0.7071 0.7071 0.7071 -58.9246 190.524)" width="17.067" height="60.33"/>
	</g>
</g>
<g>
	<g>
		<rect x="81.06" y="42.361" transform="matrix(0.7071 -0.7071 0.7071 0.7071 -25.0421 84.5944)" width="17.067" height="60.33"/>
	</g>
</g>
<g>
	<g>
		<path d="M366.933,213.333c-42.351,0-76.8,34.458-76.8,76.8c0,42.351,34.449,76.8,76.8,76.8s76.8-34.449,76.8-76.8
			C443.733,247.791,409.284,213.333,366.933,213.333z M366.933,349.867c-32.93,0-59.733-26.803-59.733-59.733
			s26.803-59.733,59.733-59.733c32.93,0,59.733,26.803,59.733,59.733C426.667,323.063,399.864,349.867,366.933,349.867z"/>
	</g>
</g>
<g>
	<g>
		
			<rect x="281.292" y="328.551" transform="matrix(0.7071 -0.7071 0.7071 0.7071 -147.1305 318.9631)" width="60.33" height="17.067"/>
	</g>
</g>
<g>
	<g>
		<path d="M366.933,264.533c-14.114,0-25.6,11.486-25.6,25.6s11.486,25.6,25.6,25.6s25.6-11.486,25.6-25.6
			S381.047,264.533,366.933,264.533z M366.933,298.667c-4.71,0-8.533-3.823-8.533-8.533s3.823-8.533,8.533-8.533
			s8.533,3.823,8.533,8.533S371.644,298.667,366.933,298.667z"/>
	</g>
</g>
<g>
	<g>
		
			<rect x="392.227" y="234.68" transform="matrix(0.7071 -0.7071 0.7071 0.7071 -48.2622 369.9121)" width="60.33" height="17.066"/>
	</g>
</g>
<g>
	<g>
		
			<rect x="413.86" y="306.896" transform="matrix(0.7071 -0.7071 0.7071 0.7071 -114.6218 397.3998)" width="17.066" height="60.33"/>
	</g>
</g>
<g>
	<g>
		
			<rect x="302.923" y="213.056" transform="matrix(0.7071 -0.7071 0.7071 0.7071 -80.7601 291.4698)" width="17.067" height="60.33"/>
	</g>
</g>
<g>
	<g>
		<path d="M366.933,42.667c-42.351,0-76.8,34.458-76.8,76.8s34.449,76.8,76.8,76.8s76.8-34.458,76.8-76.8
			S409.284,42.667,366.933,42.667z M366.933,179.2c-32.93,0-59.733-26.795-59.733-59.733s26.803-59.733,59.733-59.733
			c32.93,0,59.733,26.795,59.733,59.733S399.864,179.2,366.933,179.2z"/>
	</g>
</g>
<g>
	<g>
		
			<rect x="281.292" y="157.875" transform="matrix(0.7071 -0.7071 0.7071 0.7071 -26.445 268.9732)" width="60.33" height="17.067"/>
	</g>
</g>
<g>
	<g>
		<path d="M366.933,93.867c-14.114,0-25.6,11.486-25.6,25.6s11.486,25.6,25.6,25.6s25.6-11.486,25.6-25.6
			S381.047,93.867,366.933,93.867z M366.933,128c-4.71,0-8.533-3.831-8.533-8.533s3.823-8.533,8.533-8.533s8.533,3.831,8.533,8.533
			S371.644,128,366.933,128z"/>
	</g>
</g>
<g>
	<g>
		<rect x="392.227" y="64.005" transform="matrix(0.7071 -0.7071 0.7071 0.7071 72.4235 319.9227)" width="60.33" height="17.067"/>
	</g>
</g>
<g>
	<g>
		<rect x="413.86" y="136.229" transform="matrix(0.7071 -0.7071 0.7071 0.7071 6.0582 347.4138)" width="17.067" height="60.33"/>
	</g>
</g>
<g>
	<g>
		<rect x="302.923" y="42.372" transform="matrix(0.7071 -0.7071 0.7071 0.7071 39.9317 241.4787)" width="17.067" height="60.33"/>
	</g>
</g>
<g>
	<g>
		<path d="M341.333,418.133c-14.114,0-25.6,11.486-25.6,25.6s11.486,25.6,25.6,25.6s25.6-11.486,25.6-25.6
			S355.448,418.133,341.333,418.133z M341.333,452.267c-4.71,0-8.533-3.823-8.533-8.533s3.823-8.533,8.533-8.533
			s8.533,3.823,8.533,8.533S346.044,452.267,341.333,452.267z"/>
	</g>
</g>
<g>
	<g>
		<path d="M256,418.133c-14.114,0-25.6,11.486-25.6,25.6s11.486,25.6,25.6,25.6s25.6-11.486,25.6-25.6S270.114,418.133,256,418.133z
			 M256,452.267c-4.702,0-8.533-3.823-8.533-8.533s3.831-8.533,8.533-8.533c4.71,0,8.533,3.823,8.533,8.533
			S260.71,452.267,256,452.267z"/>
	</g>
</g>
<g>
	<g>
		<path d="M426.667,418.133c-14.114,0-25.6,11.486-25.6,25.6s11.486,25.6,25.6,25.6s25.6-11.486,25.6-25.6
			S440.781,418.133,426.667,418.133z M426.667,452.267c-4.71,0-8.533-3.823-8.533-8.533s3.823-8.533,8.533-8.533
			s8.533,3.823,8.533,8.533S431.377,452.267,426.667,452.267z"/>
	</g>
</g>
<g>
	<g>
		<path d="M85.333,418.133c-14.114,0-25.6,11.486-25.6,25.6s11.486,25.6,25.6,25.6s25.6-11.486,25.6-25.6
			S99.447,418.133,85.333,418.133z M85.333,452.267c-4.702,0-8.533-3.823-8.533-8.533s3.831-8.533,8.533-8.533
			c4.702,0,8.533,3.823,8.533,8.533S90.035,452.267,85.333,452.267z"/>
	</g>
</g>
<g>
	<g>
		<path d="M170.667,418.133c-14.114,0-25.6,11.486-25.6,25.6s11.486,25.6,25.6,25.6s25.6-11.486,25.6-25.6
			S184.781,418.133,170.667,418.133z M170.667,452.267c-4.702,0-8.533-3.823-8.533-8.533s3.831-8.533,8.533-8.533
			c4.702,0,8.533,3.823,8.533,8.533S175.369,452.267,170.667,452.267z"/>
	</g>
</g>
<g>
	<g>
		<rect x="8.533" y="384" width="494.933" height="17.067"/>
	</g>
</g>
<g>
</g>
<g>
</g>
<g>
</g>
<g>
</g>
<g>
</g>
<g>
</g>
<g>
</g>
<g>
</g>
<g>
</g>
<g>
</g>
<g>
</g>
<g>
</g>
<g>
</g>
<g>
</g>
<g>
</g>
</svg>
