<?xml version="1.0" encoding="utf-8"?>
<!-- Generator: Adobe Illustrator 23.0.1, SVG Export Plug-In . SVG Version: 6.00 Build 0)  -->
<svg version="1.1" id="Layer_1" xmlns="http://www.w3.org/2000/svg" xmlns:xlink="http://www.w3.org/1999/xlink" x="0px" y="0px"
	 viewBox="0 0 177.5 76.5" style="enable-background:new 0 0 177.5 76.5;" xml:space="preserve">
<style type="text/css">
	.st0{fill:#FFFFFF;}
	.st1{fill:none;}
</style>
<g>
	<path class="st0" d="M106.7,31.3c-2,1.9-5.1,4.8-7.3,6.9c-0.9,1-3,2.7-2.9,3.2c0.2,1.4,0.9,2.4,0.9,4.4c0,5-4,13.9-10.1,13.9
		c-2.2,0-4.6-1.2-4.6-3.7c0.1-6.8,6-9.6,8.1-13.3c-1.2-1.1-2.7-1.4-3.6-2.5c-0.7-0.9-1.2-1.9-1.2-3.5c0-0.9,0.1-2.1,0.5-3.5
		c-2.4,0.9-5,3.4-7.8,5.3C77,39.8,74.6,41,72.1,41c-2.6,0-3.4-1.7-3.4-3.9c0-2.2,0.9-5,1.6-7c0.9-2.3,1.9-4.3,3.5-7.6
		c0.3-0.5,0.3-0.7,0.1-0.7c-0.9,0-7.1,6.6-10.4,9.4c-1.6,0.7-2.8-0.9-1.8-2.3c2.7-2.4,9.4-8.8,12-11.2c0.9-0.8,3.5-3.5,5.3-3.5
		c1.1,0,1.7,1.1,1.7,2.2c0,2.8-2.8,7.1-4,9.4c-1.6,3-3.8,7.6-3.8,10.2c0,0.5,0.1,1.4,0.9,1.4c1.5,0,4.7-2.1,6.2-3.2
		c4.2-3.2,7.6-6.9,11.2-11.2c1-1.2,3.2-5.4,5-5.4c0.9,0,1.4,0.9,1.4,1.7c0,2-1.9,5.1-2.4,5.9c-1.8,3.1-5.5,6.6-5.5,10.5
		c0,2.2,1.3,3.7,3.5,3.6c1.3-0.1,5.2-4.1,6.5-5.3c1-0.9,4.2-4.2,5.2-5.2C106.6,27.9,108.2,30,106.7,31.3z M88.6,50.2
		c-1.1,1.4-2.7,3.8-2.7,5.3c0,0.9,0.6,1.4,1.6,1.4c2.4,0,4.8-3.5,5.8-6c0.2-0.5,1-3.1,1-4.9c0-0.9-0.2-1.5-0.6-1.7
		C92.1,45.7,90.1,48.2,88.6,50.2z"/>
	<path class="st0" d="M129.3,26.5C115.6,46.9,96.2,76.2,72,76.2c-5.7,0-13.3-3-13.5-7.7c0-0.6,0.6-1.1,1.2-0.6
		c4.5,4.2,9.5,5.2,14.8,5.2c16.6,0,34.7-22.8,44.7-36.9c0.1-0.1,1.3-1.7,1.3-2.3c0-0.1-0.1-0.3-0.2-0.3c-0.3,0-3.3,1.9-4.2,2.4
		c-2.8,1.6-5.4,2.7-7.3,2.7c-3,0-4.5-1.5-4.5-6.4c0-4.1,7.3-16.6,10.4-16.6c1.2,0,1.8,0.7,1.8,1.5c0,2.2-9,11.9-9,16.1
		c0,1.5,0.7,2.1,2.1,2.1c4,0,15-8.6,18.4-13.2c1.1-1.4,3.5-7.6,6.2-7.6c0.9,0,1.7,0.8,1.7,1.6c0,1.1-1.9,3.8-2.8,5L129.3,26.5z"/>
	<path class="st0" d="M136.1,30.3c0-0.4,0.2-0.9,0.7-1.3c2.1-1.9,4.7-4,6-5.1c4.6-3.7,9.1-7.9,14.2-7.9c0.9,0,1.5,0.8,1.5,1.5
		c0,1.2-1.5,2.3-2.6,3.1c-3.5,2.5-9.2,4.8-10.8,6.3c-1.9,1.7-4.3,6.4-4.3,9.5c0,1.7,0.7,3,2.8,3c4.9,0,12.2-8.5,13.9-12.4
		c1.2-2.7,5.3-10.7,8.6-10.7c0.9,0,1.5,0.5,1.5,1.7c0,2.8-5.2,6.3-7.7,11.6c-1.4,3-2,5.3-2,6.8c0,1.9,0.9,2.7,2.3,2.7
		c1,0,2.2-0.4,3.5-1.2c3-1.7,9.9-9.4,10.9-9.4c0.6,0,1.4,0.7,1.4,1.4c0,1.2-10,10.7-14.1,12.2c-1.1,0.4-2,0.6-2.8,0.6
		c-5.1,0-4.1-5.7-4.8-6.8c0-0.1-0.2,0.1-0.3,0.2c-2.4,2.9-7.8,7-11.5,7c-4,0-5.5-2.8-5.5-6c0-1.7,0.5-3.6,1.2-5.3l0.1-0.2
		C137.5,32,136.1,31.3,136.1,30.3z"/>
</g>
<polygon class="st1" points="103.5,21.7 167.5,21.7 167.5,21.7 103.5,21.7 "/>
<g>
	<g>
		<path class="st0" d="M40.4,14c-0.5-3.4-2.1-6.5-4.7-8.9C32.9,2.4,29.2,1,25.4,1s-7.5,1.4-10.3,4.1c-2.5,2.4-4.2,5.5-4.7,8.9
			c-5.5,2.4-9.1,7.9-9.1,13.9C1.3,36.2,8.1,43,16.4,43c2.6,0,5.1-0.7,7.3-1.9v15.5H27V41.2c2.2,1.2,4.7,1.9,7.3,1.9
			c8.4,0,15.2-6.8,15.2-15.2C49.5,21.8,45.9,16.4,40.4,14z M34.3,39.8c-2.7,0-5.2-0.9-7.3-2.5v-10l7.3-3.8l-1.5-2.9l-5.8,3v-6.4
			h-3.3v13.6l-5.8-3l-1.5,2.9l7.3,3.8v2.7c-2.1,1.6-4.7,2.5-7.3,2.5c-6.6,0-11.9-5.3-11.9-11.9c0-5,3.2-9.5,7.9-11.2l1-0.4l0.1-1.1
			c0.2-3,1.6-5.8,3.8-7.8c2.2-2.1,5.1-3.2,8.1-3.2s5.9,1.1,8.1,3.2c2.2,2,3.5,4.8,3.8,7.8l0.1,1.1l1,0.4c4.7,1.7,7.9,6.2,7.9,11.2
			C46.2,34.4,40.9,39.8,34.3,39.8z"/>
	</g>
</g>
</svg>
