<?xml version="1.0"?>
<svg xmlns="http://www.w3.org/2000/svg" viewBox="0 0 64 64" width="512" height="512"><g id="outline"><path d="M61.083,10,37,8h-.5L34.96,2.72A1,1,0,0,0,34,2H30a1,1,0,0,0-.96.72L27.5,8h-.582l-24,2A1,1,0,0,0,2,11V23a1,1,0,0,0,1,1H7a1,1,0,0,0,1-1V18h4v5a1,1,0,0,0,1,1h4a1,1,0,0,0,1-1V18h6.583l-2.749,9.428L2.917,29A1,1,0,0,0,2,30v6a1,1,0,0,0,1,1H6v5a1,1,0,0,0,1,1h4a1,1,0,0,0,1-1V37h7.042l-4,13.72A1.019,1.019,0,0,0,15,51v5H9v6H55V56H49V51a1.019,1.019,0,0,0-.04-.28l-4-13.72H52v5a1,1,0,0,0,1,1h4a1,1,0,0,0,1-1V37h3a1,1,0,0,0,1-1V30a1,1,0,0,0-.917-1L42.167,27.43,39.417,18H46v5a1,1,0,0,0,1,1h4a1,1,0,0,0,1-1V18h4v5a1,1,0,0,0,1,1h4a1,1,0,0,0,1-1V11A1,1,0,0,0,61.083,10ZM30.308,21.4l-5.894,4.322L26.491,18.6ZM29.055,18h5.89L32,20.159ZM32,22.641l6.065,4.448L37,27,26.917,27l-.978.081ZM27,29l9.917,0,3.714.31L42.292,35H21.708l1.662-5.7Zm6.692-7.6,3.817-2.8,2.077,7.121ZM27.25,16,29,10l6,0,1.751,6Zm3.5-12h2.5l1.167,4L29.582,8ZM6,22H4V18H6Zm10,0H14V18h2ZM4,16V11.92l22.915-1.913L25.167,16Zm6,25H8V37h2ZM4,35V30.92l17.235-1.439L19.625,35Zm15.9,6.237,7.948,2-9.2,2.3Zm12.05,3.038,14.087,3.552L46.667,50H17.333l.65-2.227ZM45.384,45.6,36.05,43.247l8.059-2.018ZM53,60H11V58H53ZM17,56V52H47v4ZM43.548,39.307l-11.6,2.906-11.5-2.9L21.125,37h21.75ZM56,41H54V37h2Zm4-10.08V35H44.375l-1.609-5.516ZM37.086,10.01,60,11.92V16H38.833ZM50,22H48V18h2Zm10,0H58V18h2Z"/></g></svg>
