<svg height="512pt" viewBox="0 0 512 512" width="512pt" xmlns="http://www.w3.org/2000/svg"><path d="m494.519531 323.851562v-82.386718l-54.992187-45.195313h-40.1875v15h34.8125l45.367187 37.285157v74.695312h-50.808593v-24.429688l-26.425782-26.421874h-71.34375v-61.128907h48.296875v-15h-52.699219l-49.824218-49.828125v-33.84375h-22.214844v-49.539062l4.640625-2.390625h107.359375v-48.53125h-107.359375l-23.570313-12.136719h-38.144531l-23.566406 12.136719h-107.359375v48.53125h107.359375l4.640625 2.390625v49.539062h-19.492188v33.46875l-50.203124 50.203125h-108.804688v91.519531h47.441406v-15h-32.441406v-61.519531h89.40625v61.519531h-36.867188v15h41.265626l54.101562 54.105469h109.53125l54.496094-54.496093h69.140625l17.636719 17.636718v18.816406h-26.296876v54.304688h124.585938v-54.304688zm-228.863281-296.714843h85.84375v18.53125h-85.84375zm-98.3125 18.53125h-85.84375v-18.53125h85.84375zm15-21.027344 18.71875-9.640625h30.875l18.71875 9.640625v23.523437l-18.71875 9.640626h-30.875l-18.71875-9.640626zm57.15625 46.140625v41.816406h-46v-41.816406c1.292969.667969.445312.230469 3.929688 2.023438h38.144531c2.421875-1.25 2.433593-1.253907 3.925781-2.023438zm-65.492188 56.816406h87.707032v14.566406h-87.707032zm141.929688 149.585938-49.710938 49.710937h-97.105468l-49.710938-49.710937v-70.308594l49.710938-49.710938h97.101562l49.714844 49.714844zm181.0625 85.972656h-94.585938v-24.308594h94.585938zm0 0"/><path d="m449.707031 380.082031-6.019531 8.101563c-4.085938 5.503906-39.925781 54.417968-39.925781 77.464844 0 25.335937 20.609375 45.949218 45.945312 45.949218 25.335938 0 45.945313-20.613281 45.945313-45.949218 0-23.046876-35.839844-71.960938-39.925782-77.464844zm0 116.515625c-17.0625 0-30.945312-13.882812-30.945312-30.945312 0-11.847656 17.089843-40.257813 30.945312-60.140625 13.859375 19.882812 30.949219 48.292969 30.949219 60.140625 0 17.0625-13.882812 30.945312-30.949219 30.945312zm0 0"/><path d="m236.230469 245.597656h-15v-15h15zm-25 0h-15v-15h15zm0 0"/></svg>